<mxfile host="Electron" agent="Mozilla/5.0 (Windows NT 10.0; Win64; x64) AppleWebKit/537.36 (KHTML, like Gecko) draw.io/27.0.9 Chrome/134.0.6998.205 Electron/35.4.0 Safari/537.36" version="27.0.9">
  <diagram name="Page-1" id="L6r163xwhUelhZUuK-2X">
    <mxGraphModel dx="1426" dy="841" grid="1" gridSize="10" guides="1" tooltips="1" connect="1" arrows="1" fold="1" page="1" pageScale="1" pageWidth="850" pageHeight="1100" math="0" shadow="0">
      <root>
        <mxCell id="0" />
        <mxCell id="1" parent="0" />
        <mxCell id="5jd56jSqsaAkN96kWLgI-1" value="Logic App&lt;br&gt;Publisher Workflow&lt;div&gt;Northwind Workflow&lt;/div&gt;" style="image;aspect=fixed;html=1;points=[];align=center;fontSize=12;image=img/lib/azure2/integration/Logic_Apps.svg;" vertex="1" parent="1">
          <mxGeometry x="370" y="410" width="67" height="52" as="geometry" />
        </mxCell>
        <mxCell id="5jd56jSqsaAkN96kWLgI-2" value="Azure Open AI Service&lt;div&gt;GPT 4.o&lt;/div&gt;" style="image;aspect=fixed;html=1;points=[];align=center;fontSize=12;image=img/lib/azure2/ai_machine_learning/Cognitive_Services.svg;" vertex="1" parent="1">
          <mxGeometry x="370" y="210" width="68" height="48" as="geometry" />
        </mxCell>
        <mxCell id="5jd56jSqsaAkN96kWLgI-3" value="Pubs Database" style="image;aspect=fixed;html=1;points=[];align=center;fontSize=12;image=img/lib/azure2/databases/SQL_Database.svg;" vertex="1" parent="1">
          <mxGeometry x="208.5" y="410" width="48" height="64" as="geometry" />
        </mxCell>
        <mxCell id="5jd56jSqsaAkN96kWLgI-4" value="Northwind Database" style="image;aspect=fixed;html=1;points=[];align=center;fontSize=12;image=img/lib/azure2/databases/SQL_Database.svg;" vertex="1" parent="1">
          <mxGeometry x="570" y="410" width="48" height="64" as="geometry" />
        </mxCell>
        <mxCell id="5jd56jSqsaAkN96kWLgI-5" value="Northwind Blob Storage" style="image;aspect=fixed;html=1;points=[];align=center;fontSize=12;image=img/lib/azure2/storage/Storage_Accounts.svg;" vertex="1" parent="1">
          <mxGeometry x="561.5" y="210" width="65" height="52" as="geometry" />
        </mxCell>
        <mxCell id="5jd56jSqsaAkN96kWLgI-6" value="Chat Application" style="image;aspect=fixed;html=1;points=[];align=center;fontSize=12;image=img/lib/azure2/general/Code.svg;" vertex="1" parent="1">
          <mxGeometry x="371.5" y="620" width="64" height="52" as="geometry" />
        </mxCell>
        <mxCell id="5jd56jSqsaAkN96kWLgI-8" value="" style="shape=flexArrow;endArrow=classic;startArrow=classic;html=1;rounded=0;" edge="1" parent="1">
          <mxGeometry width="100" height="100" relative="1" as="geometry">
            <mxPoint x="400" y="600" as="sourcePoint" />
            <mxPoint x="400" y="520" as="targetPoint" />
          </mxGeometry>
        </mxCell>
        <mxCell id="5jd56jSqsaAkN96kWLgI-9" value="" style="shape=flexArrow;endArrow=classic;startArrow=classic;html=1;rounded=0;" edge="1" parent="1">
          <mxGeometry width="100" height="100" relative="1" as="geometry">
            <mxPoint x="403.5" y="390" as="sourcePoint" />
            <mxPoint x="403.5" y="310" as="targetPoint" />
          </mxGeometry>
        </mxCell>
        <mxCell id="5jd56jSqsaAkN96kWLgI-10" value="" style="shape=flexArrow;endArrow=classic;startArrow=classic;html=1;rounded=0;" edge="1" parent="1">
          <mxGeometry width="100" height="100" relative="1" as="geometry">
            <mxPoint x="270" y="441.5" as="sourcePoint" />
            <mxPoint x="360" y="442.5" as="targetPoint" />
          </mxGeometry>
        </mxCell>
        <mxCell id="5jd56jSqsaAkN96kWLgI-11" value="" style="shape=flexArrow;endArrow=classic;startArrow=classic;html=1;rounded=0;strokeColor=#00CC00;" edge="1" parent="1">
          <mxGeometry width="100" height="100" relative="1" as="geometry">
            <mxPoint x="450" y="435.5" as="sourcePoint" />
            <mxPoint x="540" y="436.5" as="targetPoint" />
          </mxGeometry>
        </mxCell>
        <mxCell id="5jd56jSqsaAkN96kWLgI-12" value="" style="shape=flexArrow;endArrow=classic;startArrow=classic;html=1;rounded=0;fillColor=default;strokeColor=#00CC00;" edge="1" parent="1">
          <mxGeometry width="100" height="100" relative="1" as="geometry">
            <mxPoint x="450" y="390" as="sourcePoint" />
            <mxPoint x="540" y="300" as="targetPoint" />
          </mxGeometry>
        </mxCell>
      </root>
    </mxGraphModel>
  </diagram>
</mxfile>
